<svg xmlns="http://www.w3.org/2000/svg" viewBox="0 0 200 260" width="200" height="260">
  <path d="
    M100 14
    C118 12, 138 18, 152 30
    C164 40, 168 54, 163 66
    C174 72, 180 84, 176 96
    C172 108, 160 116, 148 118
    C152 130, 154 144, 148 156
    C142 168, 128 174, 116 176
    C120 186, 122 200, 114 212
    C106 224, 90 228, 80 220
    C70 212, 68 198, 72 186
    C58 184, 44 176, 38 162
    C32 148, 36 132, 46 122
    C34 114, 26 100, 28 86
    C30 72, 42 60, 54 56
    C50 44, 56 30, 70 22
    C80 15, 90 15, 100 14
    Z"
    fill="white"
    fill-opacity="0.88"
  />
</svg>
